<mxfile host="app.diagrams.net" agent="Mozilla/5.0 (Macintosh; Intel Mac OS X 10_15_7) AppleWebKit/537.36 (KHTML, like Gecko) Chrome/137.0.0.0 Safari/537.36" version="27.1.5">
  <diagram name="第 1 页" id="j1TzuLuGr58YibAGpSaS">
    <mxGraphModel dx="2104" dy="924" grid="1" gridSize="10" guides="1" tooltips="1" connect="1" arrows="1" fold="1" page="0" pageScale="1" pageWidth="827" pageHeight="1169" math="0" shadow="0">
      <root>
        <mxCell id="0" />
        <mxCell id="1" parent="0" />
        <mxCell id="IqrCXrtKxaEDs8SVGuVz-1" value="&lt;font style=&quot;color: rgb(0, 102, 0);&quot;&gt;USER&lt;/font&gt;" style="shape=umlLifeline;perimeter=lifelinePerimeter;whiteSpace=wrap;html=1;container=1;dropTarget=0;collapsible=0;recursiveResize=0;outlineConnect=0;portConstraint=eastwest;newEdgeStyle={&quot;curved&quot;:0,&quot;rounded&quot;:0};fontFamily=Comic Sans MS;sketch=1;curveFitting=1;jiggle=2;rounded=1;fillColor=#3399FF;strokeColor=#6c8ebf;fontSize=21;fontStyle=1" vertex="1" parent="1">
          <mxGeometry x="-10" width="180" height="540" as="geometry" />
        </mxCell>
        <mxCell id="IqrCXrtKxaEDs8SVGuVz-6" value="&lt;font style=&quot;color: rgb(0, 102, 51);&quot;&gt;Yield&lt;/font&gt;" style="shape=umlLifeline;perimeter=lifelinePerimeter;whiteSpace=wrap;html=1;container=1;dropTarget=0;collapsible=0;recursiveResize=0;outlineConnect=0;portConstraint=eastwest;newEdgeStyle={&quot;curved&quot;:0,&quot;rounded&quot;:0};fontFamily=Comic Sans MS;sketch=1;curveFitting=1;jiggle=2;rounded=1;fillColor=#009900;strokeColor=#009900;fontSize=21;fontStyle=1" vertex="1" parent="1">
          <mxGeometry x="290" width="210" height="540" as="geometry" />
        </mxCell>
        <mxCell id="IqrCXrtKxaEDs8SVGuVz-7" value="" style="html=1;points=[[0,0,0,0,5],[0,1,0,0,-5],[1,0,0,0,5],[1,1,0,0,-5]];perimeter=orthogonalPerimeter;outlineConnect=0;targetShapes=umlLifeline;portConstraint=eastwest;newEdgeStyle={&quot;curved&quot;:0,&quot;rounded&quot;:0};fontFamily=Architects Daughter;fontSource=https%3A%2F%2Ffonts.googleapis.com%2Fcss%3Ffamily%3DArchitects%2BDaughter;fillColor=#0050ef;strokeColor=#001DBC;fontColor=#ffffff;sketch=1;curveFitting=1;jiggle=2;rounded=1;shadow=1;" vertex="1" parent="IqrCXrtKxaEDs8SVGuVz-6">
          <mxGeometry x="88.75" y="90" width="32.5" height="80" as="geometry" />
        </mxCell>
        <mxCell id="IqrCXrtKxaEDs8SVGuVz-8" value="Deposit / Withdraw" style="html=1;verticalAlign=bottom;startArrow=oval;endArrow=block;startSize=8;curved=0;rounded=0;entryX=0;entryY=0;entryDx=0;entryDy=5;fontFamily=Architects Daughter;fontSource=https%3A%2F%2Ffonts.googleapis.com%2Fcss%3Ffamily%3DArchitects%2BDaughter;fontSize=16;sourcePerimeterSpacing=8;targetPerimeterSpacing=8;strokeColor=#0000CC;" edge="1" target="IqrCXrtKxaEDs8SVGuVz-7" parent="1" source="IqrCXrtKxaEDs8SVGuVz-1">
          <mxGeometry relative="1" as="geometry">
            <mxPoint x="150" y="215" as="sourcePoint" />
          </mxGeometry>
        </mxCell>
        <mxCell id="IqrCXrtKxaEDs8SVGuVz-9" value="&lt;font style=&quot;color: rgb(0, 102, 51);&quot;&gt;X Layer&lt;/font&gt;" style="shape=umlLifeline;perimeter=lifelinePerimeter;whiteSpace=wrap;html=1;container=1;dropTarget=0;collapsible=0;recursiveResize=0;outlineConnect=0;portConstraint=eastwest;newEdgeStyle={&quot;curved&quot;:0,&quot;rounded&quot;:0};fontFamily=Comic Sans MS;sketch=1;curveFitting=1;jiggle=2;rounded=1;fillColor=#009900;strokeColor=#009900;fontSize=21;fontStyle=1" vertex="1" parent="1">
          <mxGeometry x="600" width="180" height="540" as="geometry" />
        </mxCell>
        <mxCell id="IqrCXrtKxaEDs8SVGuVz-11" value="" style="html=1;points=[[0,0,0,0,5],[0,1,0,0,-5],[1,0,0,0,5],[1,1,0,0,-5]];perimeter=orthogonalPerimeter;outlineConnect=0;targetShapes=umlLifeline;portConstraint=eastwest;newEdgeStyle={&quot;curved&quot;:0,&quot;rounded&quot;:0};fontFamily=Architects Daughter;fontSource=https%3A%2F%2Ffonts.googleapis.com%2Fcss%3Ffamily%3DArchitects%2BDaughter;" vertex="1" parent="IqrCXrtKxaEDs8SVGuVz-9">
          <mxGeometry x="75" y="160" width="30" height="80" as="geometry" />
        </mxCell>
        <mxCell id="IqrCXrtKxaEDs8SVGuVz-12" value="Deposit / Withdraw" style="html=1;verticalAlign=bottom;endArrow=block;curved=0;rounded=0;entryX=0;entryY=0;entryDx=0;entryDy=5;fontFamily=Architects Daughter;fontSource=https%3A%2F%2Ffonts.googleapis.com%2Fcss%3Ffamily%3DArchitects%2BDaughter;fontSize=16;startSize=14;endSize=14;sourcePerimeterSpacing=8;targetPerimeterSpacing=8;" edge="1" parent="1">
          <mxGeometry relative="1" as="geometry">
            <mxPoint x="411.25" y="160" as="sourcePoint" />
            <mxPoint x="686.25" y="160" as="targetPoint" />
          </mxGeometry>
        </mxCell>
        <mxCell id="IqrCXrtKxaEDs8SVGuVz-14" value="Text" style="edgeLabel;html=1;align=center;verticalAlign=middle;resizable=0;points=[];fontSize=16;fontFamily=Architects Daughter;fontSource=https%3A%2F%2Ffonts.googleapis.com%2Fcss%3Ffamily%3DArchitects%2BDaughter;" vertex="1" connectable="0" parent="IqrCXrtKxaEDs8SVGuVz-12">
          <mxGeometry x="0.3945" y="-1" relative="1" as="geometry">
            <mxPoint as="offset" />
          </mxGeometry>
        </mxCell>
        <mxCell id="IqrCXrtKxaEDs8SVGuVz-13" value="LP Token" style="html=1;verticalAlign=bottom;endArrow=open;dashed=1;endSize=8;curved=0;rounded=0;exitX=0;exitY=1;exitDx=0;exitDy=-5;fontFamily=Architects Daughter;fontSource=https%3A%2F%2Ffonts.googleapis.com%2Fcss%3Ffamily%3DArchitects%2BDaughter;fontSize=16;sourcePerimeterSpacing=8;targetPerimeterSpacing=8;" edge="1" source="IqrCXrtKxaEDs8SVGuVz-11" parent="1" target="IqrCXrtKxaEDs8SVGuVz-6">
          <mxGeometry x="0.0036" relative="1" as="geometry">
            <mxPoint x="400" y="195" as="targetPoint" />
            <mxPoint as="offset" />
          </mxGeometry>
        </mxCell>
      </root>
    </mxGraphModel>
  </diagram>
</mxfile>
